<svg width="140" height="140" viewBox="0 0 140 140" fill="none" xmlns="http://www.w3.org/2000/svg">
<path d="M70 137C107.003 137 137 107.003 137 70C137 32.9969 107.003 3 70 3C32.9969 3 3 32.9969 3 70C3 107.003 32.9969 137 70 137Z" stroke="#0072DB" stroke-width="6"/>
<path d="M66.9855 108.535L66.9855 108.535L57.0524 79.7536L29.0315 67.8401L29.0309 67.8399C20.6183 64.261 21.4619 52.0583 30.2942 49.6773L66.9855 108.535ZM66.9855 108.535C69.9691 117.179 82.1938 117.19 85.1874 108.544L107.388 44.4636L66.9855 108.535ZM95.7777 32.0073L30.2951 49.677L107.389 44.4614C107.963 42.8075 108.075 41.0283 107.714 39.3153C107.352 37.6016 106.53 36.0189 105.335 34.7377C104.141 33.4564 102.62 32.5251 100.936 32.044C99.2523 31.563 97.4694 31.5502 95.7789 32.0069C95.7788 32.007 95.7786 32.007 95.7784 32.0071C95.7782 32.0071 95.7779 32.0072 95.7777 32.0073Z" stroke="#0072DB" stroke-width="6"/>
</svg>
