<svg width="95" height="121" viewBox="0 0 95 121" fill="none" xmlns="http://www.w3.org/2000/svg">
<path d="M24.4163 77.3055C23.5249 77.3055 22.67 76.9514 22.0396 76.321C21.4093 75.6907 21.0552 74.8358 21.0552 73.9444C21.0552 73.0529 21.4093 72.198 22.0396 71.5677C22.67 70.9374 23.5249 70.5833 24.4163 70.5833H71.4718C72.3632 70.5833 73.2181 70.9374 73.8485 71.5677C74.4788 72.198 74.8329 73.0529 74.8329 73.9444C74.8329 74.8358 74.4788 75.6907 73.8485 76.321C73.2181 76.9514 72.3632 77.3055 71.4718 77.3055H24.4163ZM24.4163 94.111C23.5249 94.111 22.67 93.7569 22.0396 93.1266C21.4093 92.4962 21.0552 91.6413 21.0552 90.7499C21.0552 89.8585 21.4093 89.0036 22.0396 88.3732C22.67 87.7429 23.5249 87.3888 24.4163 87.3888H71.4718C72.3632 87.3888 73.2181 87.7429 73.8485 88.3732C74.4788 89.0036 74.8329 89.8585 74.8329 90.7499C74.8329 91.6413 74.4788 92.4962 73.8485 93.1266C73.2181 93.7569 72.3632 94.111 71.4718 94.111H24.4163Z" fill="#D65108"/>
<path fill-rule="evenodd" clip-rule="evenodd" d="M55.91 9.39376e-07H10.972C8.29773 9.39376e-07 5.733 1.06235 3.84201 2.95334C1.95102 4.84433 0.888672 7.40906 0.888672 10.0833V110.917C0.888672 113.591 1.95102 116.156 3.84201 118.047C5.733 119.938 8.29773 121 10.972 121H84.9164C87.5906 121 90.1554 119.938 92.0464 118.047C93.9374 116.156 94.9997 113.591 94.9997 110.917V41.6912C94.9991 39.1668 94.0516 36.7345 92.3444 34.8749L63.3448 3.267C62.3997 2.23679 61.2507 1.41436 59.9708 0.851938C58.6909 0.289518 57.308 -0.000602487 55.91 9.39376e-07ZM7.61089 10.0833C7.61089 9.1919 7.965 8.33699 8.59534 7.70666C9.22567 7.07633 10.0806 6.72222 10.972 6.72222H55.91C56.3764 6.7217 56.8378 6.81826 57.2648 7.00574C57.6919 7.19323 58.0752 7.46753 58.3905 7.81122L87.3902 39.4191C87.96 40.0386 88.2767 40.8494 88.2775 41.6912V110.917C88.2775 111.808 87.9234 112.663 87.293 113.293C86.6627 113.924 85.8078 114.278 84.9164 114.278H10.972C10.0806 114.278 9.22567 113.924 8.59534 113.293C7.965 112.663 7.61089 111.808 7.61089 110.917V10.0833Z" fill="#D65108"/>
<path d="M58.0278 7.39526V38.9897H89.6223" stroke="#D65108" stroke-linecap="round" stroke-linejoin="round"/>
<path d="M35.4003 34.5052C36.3603 34.5346 37.3163 34.3709 38.2118 34.0238C39.1073 33.6768 39.924 33.1534 40.6134 32.4848C41.3029 31.8161 41.851 31.0159 42.2253 30.1314C42.5996 29.247 42.7925 28.2963 42.7925 27.3359C42.7925 26.3755 42.5996 25.4249 42.2253 24.5405C41.851 23.656 41.3029 22.8557 40.6134 22.1871C39.924 21.5185 39.1073 20.9951 38.2118 20.648C37.3163 20.301 36.3603 20.1373 35.4003 20.1667C33.5369 20.2238 31.7689 21.0041 30.471 22.3424C29.1731 23.6806 28.4473 25.4717 28.4473 27.3359C28.4473 29.2002 29.1731 30.9912 30.471 32.3295C31.7689 33.6678 33.5369 34.4481 35.4003 34.5052Z" fill="#D65108"/>
<path fill-rule="evenodd" clip-rule="evenodd" d="M49.7322 50.0404C49.7322 42.4174 43.3124 36.8984 35.3937 36.8984C27.4749 36.8984 21.0552 42.4107 21.0552 50.0404V53.63C21.057 54.2636 21.3099 54.8705 21.7585 55.3179C22.2071 55.7652 22.8148 56.0164 23.4483 56.0164H47.3458C47.9781 56.0147 48.5841 55.7627 49.0312 55.3155C49.4784 54.8684 49.7304 54.2624 49.7322 53.63V50.0404Z" fill="#D65108"/>
</svg>
