<svg width="610" height="273" viewBox="0 0 610 273" fill="none" xmlns="http://www.w3.org/2000/svg">
<path d="M47.1057 86.3303H94.6373V89.3016H86.0728V192.552H94.6373V195.513H47.1057V192.552H55.6703V89.3016H47.1057V86.3303Z" fill="black"/>
<path d="M100.409 121.276H137.969V135.622C139.631 130.841 142.174 126.994 145.603 124.081C149.038 121.17 154.234 119.712 161.192 119.712C177.302 119.712 185.357 128.393 185.357 145.755V192.708H194.088V195.512H149.969V192.708H156.362V142.019C156.362 135.783 155.943 131.753 155.11 129.934C154.281 128.111 152.777 127.196 150.6 127.196C147.276 127.196 144.34 129.38 141.792 133.748C139.244 138.116 137.969 143.421 137.969 149.658V192.708H144.673V195.512H100.409V192.708H108.985V124.081H100.409V121.276Z" fill="black"/>
<path d="M199.69 197.076V169.159H201.562C204.266 178.201 207.902 184.542 212.476 188.184C217.046 191.821 222.76 193.639 229.616 193.639C240.213 193.639 245.515 190.263 245.515 183.506C245.515 180.595 244.219 178.411 241.626 176.953C237.571 174.664 232.375 172.896 226.037 171.654C218.968 169.777 213.043 167.28 208.265 164.159C202.548 160.42 199.69 154.497 199.69 146.387C199.69 138.272 202.183 131.797 207.168 126.963C212.16 122.129 218.813 119.713 227.123 119.713C232.219 119.713 237.466 120.91 242.867 123.305C244.839 124.133 246.346 124.546 247.388 124.546C248.429 124.546 249.31 124.186 250.036 123.46C250.767 122.728 251.648 121.376 252.684 119.402H254.401V143.261H252.528C247.232 129.743 239.025 122.983 227.91 122.983C223.018 122.983 219.378 123.845 216.985 125.566C214.597 127.282 213.406 129.436 213.406 132.03C213.406 133.59 213.766 134.813 214.492 135.7C215.223 136.587 215.794 137.238 216.209 137.651C216.63 138.067 217.306 138.51 218.237 138.981C219.173 139.447 219.954 139.81 220.575 140.068C221.201 140.328 222.162 140.666 223.456 141.088C224.755 141.504 225.719 141.761 226.347 141.864C233.408 143.632 238.496 145.165 241.615 146.465C244.739 147.759 247.701 149.345 250.501 151.221C256.218 155.168 259.077 161.537 259.077 170.324C259.077 179.113 256.476 185.767 251.276 190.291C246.083 194.814 238.967 197.076 229.926 197.076C223.483 197.076 217.251 195.568 211.224 192.552C209.974 191.718 208.988 191.3 208.265 191.3C205.975 191.3 203.739 193.226 201.562 197.076H199.69Z" fill="black"/>
<path d="M271.545 173.206V124.081H262.969V121.276H271.545V101.153L300.54 93.9801V121.276H320.805V124.081H300.54V176.643C300.54 181.529 301.03 185.119 302.014 187.408C303.002 189.692 305.055 190.834 308.174 190.834C311.29 190.834 314.016 189.276 316.351 186.155C318.691 183.037 320.229 178.772 320.96 173.361L323.608 173.672C322.771 180.85 320.483 186.543 316.738 190.756C312.999 194.969 306.817 197.076 298.191 197.076C289.571 197.076 282.973 195.363 278.403 191.931C273.83 188.495 271.545 182.253 271.545 173.206Z" fill="black"/>
<path d="M362.57 158.86H367.091V146.853C367.091 136.972 366.543 130.342 365.451 126.963C364.365 123.587 362.263 121.896 359.147 121.896C357.269 121.896 355.579 122.393 354.072 123.382C352.566 124.366 351.812 125.716 351.812 127.429C351.812 129.144 352.125 130.888 352.754 132.662H356.643C357.477 134.843 357.895 137.468 357.895 140.533C357.895 143.602 356.593 146.254 353.995 148.494C351.402 150.728 348.128 151.842 344.178 151.842C335.24 151.842 330.772 147.526 330.772 138.892C330.772 126.107 341.63 119.712 363.346 119.712C375.711 119.712 384.256 121.819 388.984 126.032C393.718 130.239 396.086 137.958 396.086 149.192V180.856C396.086 186.261 397.593 188.96 400.607 188.96C404.136 188.96 406.213 183.605 406.834 172.896L409.171 173.051C408.756 182.203 407.044 188.495 404.03 191.931C401.017 195.363 396.081 197.076 389.228 197.076C376.752 197.076 369.578 193.229 367.711 185.534C366.36 189.481 364.332 192.394 361.629 194.271C358.931 196.139 354.984 197.076 349.785 197.076C334.406 197.076 326.717 190.784 326.717 178.195C326.717 170.82 329.653 165.753 335.525 162.995C341.397 160.24 350.411 158.86 362.57 158.86ZM356.333 178.04C356.333 183.45 356.615 186.937 357.186 188.495C357.762 190.055 358.853 190.834 360.465 190.834C362.075 190.834 363.581 189.509 364.986 186.854C366.387 184.201 367.091 180.534 367.091 175.856V161.354H365.994C359.551 161.354 356.333 166.085 356.333 175.545V178.04Z" fill="black"/>
<path d="M411.045 121.276H448.605V135.622C450.267 130.841 452.81 126.994 456.239 124.081C459.673 121.17 464.87 119.712 471.828 119.712C487.938 119.712 495.992 128.393 495.992 145.755V192.708H504.723V195.512H460.604V192.708H466.997V142.019C466.997 135.783 466.579 131.753 465.745 129.934C464.917 128.111 463.413 127.196 461.236 127.196C457.912 127.196 454.976 129.38 452.427 133.748C449.879 138.116 448.605 143.421 448.605 149.658V192.708H455.308V195.512H411.045V192.708H419.621V124.081H411.045V121.276Z" fill="black"/>
<path d="M514.535 173.206V124.081H505.96V121.276H514.535V101.153L543.531 93.9801V121.276H563.795V124.081H543.531V176.643C543.531 181.529 544.021 185.119 545.004 187.408C545.993 189.692 548.046 190.834 551.165 190.834C554.281 190.834 557.006 189.276 559.341 186.155C561.682 183.037 563.219 178.772 563.95 173.361L566.599 173.672C565.762 180.85 563.474 186.543 559.729 190.756C555.99 194.969 549.807 197.076 541.182 197.076C532.562 197.076 525.964 195.363 521.394 191.931C516.821 188.495 514.535 182.253 514.535 173.206Z" fill="black"/>
<path d="M131.949 225.061V212.156H134.431L140.226 221.635H140.303V212.156H142.431V225.061H139.949L134.143 215.637H134.077V225.061H131.949Z" fill="black"/>
<path d="M149.249 225.227C147.786 225.227 146.673 224.772 145.914 223.863C145.138 222.963 144.75 221.779 144.75 220.316C144.75 218.852 145.141 217.663 145.925 216.746C146.706 215.845 147.814 215.393 149.249 215.393C150.667 215.393 151.775 215.845 152.572 216.746C153.348 217.663 153.736 218.852 153.736 220.316C153.736 221.779 153.348 222.963 152.572 223.863C151.789 224.772 150.681 225.227 149.249 225.227ZM149.249 223.364C150.814 223.364 151.597 222.35 151.597 220.316C151.597 219.348 151.401 218.592 151.01 218.043C150.625 217.519 150.038 217.256 149.249 217.256C148.451 217.256 147.858 217.519 147.476 218.043C147.077 218.592 146.878 219.348 146.878 220.316C146.878 221.269 147.08 222.017 147.487 222.555C147.886 223.096 148.473 223.364 149.249 223.364Z" fill="black"/>
<path d="M161.153 225.061V215.548H163.004L163.17 216.779H163.247C163.829 215.856 164.757 215.393 166.028 215.393C167.084 215.393 167.917 215.701 168.532 216.313C169.145 216.92 169.452 217.766 169.452 218.852V225.061H167.358V219.362C167.358 217.982 166.71 217.289 165.419 217.289C164.746 217.289 164.217 217.508 163.835 217.943C163.441 218.409 163.247 219.03 163.247 219.806V225.061H161.153Z" fill="black"/>
<path d="M175.828 225.227C174.415 225.227 173.316 224.767 172.526 223.841C171.728 222.918 171.33 221.743 171.33 220.316C171.33 218.869 171.717 217.685 172.493 216.768C173.246 215.853 174.343 215.393 175.784 215.393C177.149 215.393 178.204 215.823 178.952 216.679C179.706 217.538 180.082 218.65 180.082 220.016V220.892H173.501C173.501 221.685 173.703 222.306 174.111 222.755C174.501 223.229 175.075 223.464 175.828 223.464C176.964 223.464 177.656 223.032 177.9 222.167H179.938C179.811 223.062 179.373 223.794 178.62 224.362C177.85 224.939 176.919 225.227 175.828 225.227ZM173.523 219.406H177.922C177.9 218.741 177.714 218.198 177.368 217.777C176.997 217.372 176.471 217.167 175.784 217.167C175.066 217.167 174.512 217.372 174.122 217.777C173.737 218.198 173.537 218.741 173.523 219.406Z" fill="black"/>
<path d="M185.759 225.227C183.881 225.227 182.944 224.304 182.944 222.455V217.344H181.371V215.548H183.033V213.542L184.861 213.032H185.038V215.548H187.343V217.344H185.038V222.089C185.038 222.55 185.138 222.877 185.338 223.076C185.543 223.284 185.853 223.387 186.268 223.387C186.606 223.387 186.916 223.342 187.199 223.254H187.376V225.027C186.933 225.161 186.393 225.227 185.759 225.227Z" fill="black"/>
<path d="M191.02 225.061L188.505 215.737V215.548H190.599L192.295 222.555H192.372L194.189 215.548H196.715L198.532 222.555H198.61L200.305 215.548H202.388V215.737L199.862 225.061H197.347L195.519 218.065H195.441L193.547 225.061H191.02Z" fill="black"/>
<path d="M207.892 225.227C206.43 225.227 205.316 224.772 204.557 223.863C203.782 222.963 203.394 221.779 203.394 220.316C203.394 218.852 203.784 217.663 204.568 216.746C205.349 215.845 206.457 215.393 207.892 215.393C209.31 215.393 210.418 215.845 211.216 216.746C211.992 217.663 212.379 218.852 212.379 220.316C212.379 221.779 211.992 222.963 211.216 223.863C210.432 224.772 209.324 225.227 207.892 225.227ZM207.892 223.364C209.457 223.364 210.241 222.35 210.241 220.316C210.241 219.348 210.044 218.592 209.654 218.043C209.269 217.519 208.682 217.256 207.892 217.256C207.094 217.256 206.502 217.519 206.119 218.043C205.721 218.592 205.521 219.348 205.521 220.316C205.521 221.269 205.723 222.017 206.13 222.555C206.529 223.096 207.117 223.364 207.892 223.364Z" fill="black"/>
<path d="M214.447 225.061V215.548H216.208L216.397 217.067H216.463C216.685 216.557 216.998 216.158 217.405 215.87C217.826 215.576 218.336 215.426 218.934 215.426H219.699V217.378H218.89C218.092 217.378 217.488 217.641 217.084 218.165C216.668 218.691 216.463 219.44 216.463 220.415V225.061H214.447Z" fill="black"/>
<path d="M225.832 219.861L229.832 224.883V225.061H227.339L223.639 220.382V225.061H221.622V211.424H223.639V219.418L227.206 215.548H229.688V215.737L225.832 219.861Z" fill="black"/>
<path d="M240.685 225.227C239.222 225.227 238.109 224.772 237.35 223.863C236.574 222.963 236.187 221.779 236.187 220.316C236.187 218.852 236.577 217.663 237.361 216.746C238.142 215.845 239.25 215.393 240.685 215.393C242.103 215.393 243.211 215.845 244.009 216.746C244.784 217.663 245.172 218.852 245.172 220.316C245.172 221.779 244.784 222.963 244.009 223.863C243.225 224.772 242.117 225.227 240.685 225.227ZM240.685 223.364C242.25 223.364 243.034 222.35 243.034 220.316C243.034 219.348 242.837 218.592 242.447 218.043C242.061 217.519 241.474 217.256 240.685 217.256C239.887 217.256 239.294 217.519 238.912 218.043C238.513 218.592 238.314 219.348 238.314 220.316C238.314 221.269 238.516 222.017 238.923 222.555C239.322 223.096 239.909 223.364 240.685 223.364Z" fill="black"/>
<path d="M247.239 225.061V215.548H249.09L249.256 216.779H249.333C249.915 215.856 250.843 215.393 252.114 215.393C253.17 215.393 254.003 215.701 254.618 216.313C255.23 216.92 255.538 217.766 255.538 218.852V225.061H253.444V219.362C253.444 217.982 252.796 217.289 251.505 217.289C250.832 217.289 250.303 217.508 249.921 217.943C249.527 218.409 249.333 219.03 249.333 219.806V225.061H247.239Z" fill="black"/>
<path d="M267.264 225.227C265.802 225.227 264.688 224.772 263.929 223.863C263.154 222.963 262.766 221.779 262.766 220.316C262.766 218.852 263.156 217.663 263.94 216.746C264.721 215.845 265.829 215.393 267.264 215.393C268.682 215.393 269.79 215.845 270.588 216.746C271.364 217.663 271.751 218.852 271.751 220.316C271.751 221.779 271.364 222.963 270.588 223.863C269.804 224.772 268.696 225.227 267.264 225.227ZM267.264 223.364C268.829 223.364 269.613 222.35 269.613 220.316C269.613 219.348 269.416 218.592 269.026 218.043C268.641 217.519 268.054 217.256 267.264 217.256C266.466 217.256 265.874 217.519 265.491 218.043C265.093 218.592 264.893 219.348 264.893 220.316C264.893 221.269 265.095 222.017 265.503 222.555C265.901 223.096 266.489 223.364 267.264 223.364Z" fill="black"/>
<path d="M277.42 225.227C275.542 225.227 274.605 224.304 274.605 222.455V217.344H273.032V215.548H274.694V213.542L276.522 213.032H276.699V215.548H279.004V217.344H276.699V222.089C276.699 222.55 276.799 222.877 276.998 223.076C277.203 223.284 277.514 223.387 277.929 223.387C278.267 223.387 278.577 223.342 278.86 223.254H279.037V225.027C278.594 225.161 278.054 225.227 277.42 225.227Z" fill="black"/>
<path d="M281.219 225.061V211.424H283.313V216.779H283.379C283.969 215.856 284.889 215.393 286.138 215.393C287.216 215.393 288.058 215.698 288.664 216.302C289.276 216.94 289.584 217.788 289.584 218.852V225.061H287.49V219.362C287.49 217.982 286.839 217.289 285.54 217.289C284.875 217.289 284.343 217.519 283.944 217.976C283.523 218.428 283.313 219.046 283.313 219.828V225.061H281.219Z" fill="black"/>
<path d="M295.965 225.227C294.553 225.227 293.453 224.767 292.664 223.841C291.866 222.918 291.467 221.743 291.467 220.316C291.467 218.869 291.855 217.685 292.63 216.768C293.384 215.853 294.481 215.393 295.921 215.393C297.287 215.393 298.342 215.823 299.09 216.679C299.843 217.538 300.22 218.65 300.22 220.016V220.892H293.639C293.639 221.685 293.841 222.306 294.248 222.755C294.639 223.229 295.212 223.464 295.965 223.464C297.101 223.464 297.794 223.032 298.037 222.167H300.076C299.948 223.062 299.511 223.794 298.757 224.362C297.987 224.939 297.057 225.227 295.965 225.227ZM293.661 219.406H298.059C298.037 218.741 297.852 218.198 297.505 217.777C297.134 217.372 296.608 217.167 295.921 217.167C295.204 217.167 294.65 217.372 294.259 217.777C293.874 218.198 293.675 218.741 293.661 219.406Z" fill="black"/>
<path d="M302.295 225.061V215.548H304.057L304.245 217.067H304.312C304.533 216.557 304.846 216.158 305.253 215.87C305.674 215.576 306.184 215.426 306.782 215.426H307.547V217.378H306.738C305.94 217.378 305.337 217.641 304.932 218.165C304.517 218.691 304.312 219.44 304.312 220.415V225.061H302.295Z" fill="black"/>
<path d="M317.502 225.227C316.482 225.227 315.676 224.944 315.086 224.373C314.488 223.836 314.189 223.132 314.189 222.267C314.189 221.374 314.513 220.656 315.164 220.116C315.82 219.578 316.793 219.307 318.078 219.307C318.837 219.307 319.574 219.415 320.283 219.628V218.741C320.283 218.262 320.13 217.865 319.828 217.555C319.518 217.261 319.045 217.112 318.41 217.112C317.856 217.112 317.424 217.25 317.114 217.522C316.795 217.804 316.629 218.143 316.615 218.542H314.632C314.632 217.627 314.976 216.868 315.663 216.269C316.341 215.687 317.269 215.393 318.444 215.393C319.662 215.393 320.618 215.703 321.313 216.324C322.014 216.954 322.366 217.752 322.366 218.719V225.061H320.515L320.371 223.941H320.305C319.712 224.8 318.779 225.227 317.502 225.227ZM317.978 223.553C318.671 223.553 319.23 223.348 319.651 222.932C320.072 222.533 320.283 222.045 320.283 221.469V221.158C319.64 220.936 318.948 220.826 318.211 220.826C317.574 220.826 317.097 220.942 316.782 221.169C316.449 221.421 316.283 221.762 316.283 222.189C316.283 222.597 316.43 222.921 316.726 223.165C316.998 223.425 317.416 223.553 317.978 223.553Z" fill="black"/>
<path d="M324.873 229.285V215.548H326.724L326.967 216.69H327.034C327.602 215.825 328.507 215.393 329.748 215.393C330.959 215.393 331.923 215.834 332.64 216.712C333.349 217.608 333.704 218.808 333.704 220.316C333.704 221.779 333.36 222.963 332.673 223.863C331.964 224.772 330.989 225.227 329.748 225.227C328.507 225.227 327.602 224.792 327.034 223.919H326.967V229.285H324.873ZM329.228 223.364C330.031 223.364 330.629 223.082 331.022 222.511C331.399 221.965 331.588 221.233 331.588 220.316C331.588 219.393 331.399 218.653 331.022 218.098C330.637 217.538 330.039 217.256 329.228 217.256C328.444 217.256 327.859 217.538 327.477 218.098C327.084 218.669 326.89 219.406 326.89 220.316C326.89 221.203 327.084 221.931 327.477 222.5C327.876 223.076 328.458 223.364 329.228 223.364Z" fill="black"/>
<path d="M335.789 229.285V215.548H337.639L337.883 216.69H337.95C338.517 215.825 339.423 215.393 340.664 215.393C341.875 215.393 342.838 215.834 343.556 216.712C344.265 217.608 344.62 218.808 344.62 220.316C344.62 221.779 344.276 222.963 343.589 223.863C342.88 224.772 341.905 225.227 340.664 225.227C339.423 225.227 338.517 224.792 337.95 223.919H337.883V229.285H335.789ZM340.143 223.364C340.947 223.364 341.545 223.082 341.938 222.511C342.315 221.965 342.503 221.233 342.503 220.316C342.503 219.393 342.315 218.653 341.938 218.098C341.553 217.538 340.955 217.256 340.143 217.256C339.359 217.256 338.775 217.538 338.393 218.098C337.999 218.669 337.806 219.406 337.806 220.316C337.806 221.203 337.999 221.931 338.393 222.5C338.792 223.076 339.373 223.364 340.143 223.364Z" fill="black"/>
<path d="M350.095 225.227C348.838 225.227 347.868 224.925 347.181 224.318C346.456 223.714 346.087 222.904 346.073 221.89H348.168C348.168 222.356 348.339 222.727 348.688 222.999C349.043 223.281 349.511 223.42 350.095 223.42C351.314 223.42 351.924 223.065 351.924 222.356C351.924 221.787 351.505 221.424 350.672 221.269L348.999 220.948C347.248 220.593 346.373 219.661 346.373 218.154C346.373 217.355 346.699 216.69 347.359 216.158C348.007 215.648 348.899 215.393 350.029 215.393C351.159 215.393 352.079 215.681 352.788 216.258C353.475 216.829 353.818 217.574 353.818 218.497H351.768C351.746 218.062 351.575 217.71 351.259 217.444C350.94 217.2 350.519 217.078 349.996 217.078C349.522 217.078 349.143 217.172 348.854 217.355C348.558 217.563 348.411 217.832 348.411 218.165C348.411 218.736 348.827 219.082 349.663 219.207L351.281 219.517C352.234 219.739 352.921 220.047 353.342 220.438C353.813 220.867 354.051 221.507 354.051 222.356C354.051 223.259 353.68 223.958 352.943 224.451C352.181 224.969 351.231 225.227 350.095 225.227Z" fill="black"/>
<path d="M358.515 220.97V220.681C358.515 219.95 358.642 219.382 358.902 218.974C359.16 218.561 359.584 218.129 360.177 217.677L360.764 217.211C361.384 216.732 361.7 216.166 361.717 215.515C361.717 215.036 361.556 214.636 361.24 214.318C360.908 214.002 360.426 213.841 359.8 213.841C359.135 213.841 358.625 214.018 358.271 214.373C357.93 214.714 357.761 215.213 357.761 215.87H355.623C355.623 214.747 355.983 213.813 356.709 213.065C357.432 212.341 358.462 211.978 359.8 211.978C361.032 211.978 362.021 212.297 362.769 212.932C363.523 213.575 363.899 214.406 363.899 215.426C363.899 216.579 363.428 217.519 362.492 218.242L361.717 218.852C361.279 219.185 360.974 219.473 360.797 219.717C360.625 219.983 360.542 220.305 360.542 220.681V220.97H358.515ZM359.567 225.227C359.146 225.227 358.819 225.1 358.592 224.85C358.354 224.623 358.238 224.301 358.238 223.886C358.238 223.45 358.354 223.118 358.592 222.888C358.805 222.652 359.13 222.533 359.567 222.533C359.972 222.533 360.298 222.655 360.542 222.899C360.769 223.137 360.886 223.464 360.886 223.886C360.886 224.301 360.769 224.623 360.542 224.85C360.298 225.1 359.972 225.227 359.567 225.227Z" fill="black"/>
<path d="M371.703 225.061V212.156H374.184L379.979 221.635H380.057V212.156H382.184V225.061H379.702L373.896 215.637H373.83V225.061H371.703Z" fill="black"/>
<path d="M389.002 225.227C387.54 225.227 386.426 224.772 385.667 223.863C384.892 222.963 384.504 221.779 384.504 220.316C384.504 218.852 384.894 217.663 385.678 216.746C386.459 215.845 387.567 215.393 389.002 215.393C390.42 215.393 391.528 215.845 392.326 216.746C393.102 217.663 393.489 218.852 393.489 220.316C393.489 221.779 393.102 222.963 392.326 223.863C391.542 224.772 390.434 225.227 389.002 225.227ZM389.002 223.364C390.567 223.364 391.351 222.35 391.351 220.316C391.351 219.348 391.154 218.592 390.764 218.043C390.379 217.519 389.792 217.256 389.002 217.256C388.205 217.256 387.612 217.519 387.229 218.043C386.831 218.592 386.631 219.348 386.631 220.316C386.631 221.269 386.833 222.017 387.241 222.555C387.639 223.096 388.227 223.364 389.002 223.364Z" fill="black"/>
<path d="M400.907 229.285V215.548H402.757L403.001 216.69H403.067C403.635 215.825 404.541 215.393 405.782 215.393C406.992 215.393 407.956 215.834 408.674 216.712C409.383 217.608 409.737 218.808 409.737 220.316C409.737 221.779 409.394 222.963 408.707 223.863C407.998 224.772 407.023 225.227 405.782 225.227C404.541 225.227 403.635 224.792 403.067 223.919H403.001V229.285H400.907ZM405.261 223.364C406.064 223.364 406.663 223.082 407.056 222.511C407.433 221.965 407.621 221.233 407.621 220.316C407.621 219.393 407.433 218.653 407.056 218.098C406.671 217.538 406.073 217.256 405.261 217.256C404.477 217.256 403.893 217.538 403.51 218.098C403.117 218.669 402.923 219.406 402.923 220.316C402.923 221.203 403.117 221.931 403.51 222.5C403.909 223.076 404.491 223.364 405.261 223.364Z" fill="black"/>
<path d="M411.823 225.061V215.548H413.584L413.773 217.067H413.839C414.061 216.557 414.374 216.158 414.781 215.87C415.202 215.576 415.711 215.426 416.31 215.426H417.074V217.378H416.265C415.468 217.378 414.864 217.641 414.459 218.165C414.044 218.691 413.839 219.44 413.839 220.415V225.061H411.823Z" fill="black"/>
<path d="M422.865 225.227C421.402 225.227 420.289 224.772 419.53 223.863C418.754 222.963 418.366 221.779 418.366 220.316C418.366 218.852 418.757 217.663 419.541 216.746C420.322 215.845 421.43 215.393 422.865 215.393C424.283 215.393 425.391 215.845 426.189 216.746C426.964 217.663 427.352 218.852 427.352 220.316C427.352 221.779 426.964 222.963 426.189 223.863C425.405 224.772 424.297 225.227 422.865 225.227ZM422.865 223.364C424.43 223.364 425.214 222.35 425.214 220.316C425.214 219.348 425.017 218.592 424.626 218.043C424.241 217.519 423.654 217.256 422.865 217.256C422.067 217.256 421.474 217.519 421.092 218.043C420.693 218.592 420.494 219.348 420.494 220.316C420.494 221.269 420.696 222.017 421.103 222.555C421.502 223.096 422.089 223.364 422.865 223.364Z" fill="black"/>
<path d="M434.294 225.227C433.053 225.227 432.148 224.792 431.58 223.919H431.513L431.269 225.061H429.419V211.424H431.513V216.69H431.58C432.148 215.826 433.053 215.393 434.294 215.393C435.535 215.393 436.51 215.845 437.219 216.746C437.906 217.655 438.25 218.838 438.25 220.293C438.25 221.787 437.901 222.985 437.208 223.886C436.491 224.781 435.519 225.227 434.294 225.227ZM433.773 223.364C434.571 223.364 435.17 223.076 435.568 222.5C435.945 221.945 436.133 221.211 436.133 220.293C436.133 219.384 435.945 218.653 435.568 218.098C435.183 217.538 434.585 217.256 433.773 217.256C432.99 217.256 432.405 217.538 432.023 218.098C431.63 218.669 431.436 219.401 431.436 220.293C431.436 221.197 431.63 221.932 432.023 222.5C432.422 223.076 433.003 223.364 433.773 223.364Z" fill="black"/>
<path d="M440.335 225.061V211.424H442.429V225.061H440.335Z" fill="black"/>
<path d="M448.806 225.227C447.393 225.227 446.293 224.767 445.504 223.841C444.706 222.918 444.307 221.743 444.307 220.316C444.307 218.869 444.695 217.685 445.471 216.768C446.224 215.853 447.321 215.393 448.761 215.393C450.127 215.393 451.182 215.823 451.93 216.679C452.684 217.538 453.06 218.65 453.06 220.016V220.892H446.479C446.479 221.685 446.681 222.306 447.088 222.755C447.479 223.229 448.052 223.464 448.806 223.464C449.941 223.464 450.634 223.032 450.878 222.167H452.916C452.789 223.062 452.351 223.794 451.598 224.362C450.828 224.939 449.897 225.227 448.806 225.227ZM446.501 219.406H450.9C450.878 218.741 450.692 218.198 450.346 217.777C449.975 217.372 449.448 217.167 448.761 217.167C448.044 217.167 447.49 217.372 447.099 217.777C446.714 218.198 446.515 218.741 446.501 219.406Z" fill="black"/>
<path d="M465.838 215.393C466.885 215.393 467.716 215.698 468.331 216.302C468.929 216.923 469.229 217.774 469.229 218.852V225.061H467.134V219.362C467.134 217.982 466.52 217.289 465.295 217.289C464.644 217.289 464.146 217.508 463.8 217.943C463.445 218.409 463.268 219.03 463.268 219.806V225.061H461.185V219.362C461.185 217.982 460.57 217.289 459.346 217.289C458.708 217.289 458.199 217.508 457.817 217.943C457.423 218.409 457.229 219.03 457.229 219.806V225.061H455.135V215.548H456.986L457.152 216.779H457.229C457.811 215.856 458.725 215.393 459.966 215.393C461.332 215.393 462.284 215.889 462.825 216.879H462.88C463.492 215.889 464.478 215.393 465.838 215.393Z" fill="black"/>
<mask id="mask0_1597_709" style="mask-type:luminance" maskUnits="userSpaceOnUse" x="507" y="46" width="88" height="59">
<path d="M507.713 46.1208H594.932V104.304H507.713V46.1208Z" fill="white"/>
</mask>
<g mask="url(#mask0_1597_709)">
<mask id="mask1_1597_709" style="mask-type:luminance" maskUnits="userSpaceOnUse" x="497" y="25" width="109" height="85">
<path d="M516.208 25.4967L605.15 57.6926L586.533 109.191L497.592 76.9974L516.208 25.4967Z" fill="white"/>
</mask>
<g mask="url(#mask1_1597_709)">
<mask id="mask2_1597_709" style="mask-type:luminance" maskUnits="userSpaceOnUse" x="497" y="25" width="109" height="85">
<path d="M516.208 25.4967L605.15 57.6926L586.533 109.191L497.592 76.9974L516.208 25.4967Z" fill="white"/>
</mask>
<g mask="url(#mask2_1597_709)">
<mask id="mask3_1597_709" style="mask-type:luminance" maskUnits="userSpaceOnUse" x="497" y="25" width="109" height="85">
<path d="M516.208 25.4967L605.15 57.6926L586.533 109.191L497.592 76.9974L516.208 25.4967Z" fill="white"/>
</mask>
<g mask="url(#mask3_1597_709)">
<path d="M581.91 95.9862L578.839 92.9013L594.699 86.3906L585.082 94.9884L588.278 98.2008L571.875 103.885L581.91 95.9862ZM558.153 72.3354L550.627 68.7876L574.933 46.7555L563.211 68.4717L571.044 72.1663L545.22 93.0731L558.153 72.3354ZM517.809 68.2444L512.607 71.6175L508.292 47.5759L517.366 63.5242L522.781 60.0125L525.789 84.5724L517.809 68.2444Z" fill="#FFCE3C"/>
</g>
</g>
</g>
</g>
</svg>
