<svg width="168" height="202" viewBox="0 0 168 202" fill="none" xmlns="http://www.w3.org/2000/svg">
<g id="Group 1000000882">
<path id="Vector" d="M164.755 201.188H3.24497C2.38435 201.188 1.55898 200.846 0.950429 200.237C0.34188 199.629 0 198.804 0 197.943V3.24497C0 2.38435 0.34188 1.55898 0.950429 0.950428C1.55898 0.341879 2.38435 0 3.24497 0H164.755C165.616 0 166.441 0.341879 167.05 0.950428C167.658 1.55898 168 2.38435 168 3.24497V197.943C168 198.804 167.658 199.629 167.05 200.237C166.441 200.846 165.616 201.188 164.755 201.188ZM6.48993 194.698H161.51V6.48993H6.48993V194.698Z" fill="#DADCE0"/>
<path id="Vector_2" d="M32.2926 45.1063L32.2337 44.9406L34.1669 44.6087V44.6477V44.6678L34.1674 44.6878C34.1736 44.9175 34.1004 45.1423 33.9603 45.3243C33.8226 45.5031 33.6285 45.63 33.4097 45.6844C33.1833 45.731 32.9475 45.6977 32.7426 45.5899C32.5419 45.4843 32.3833 45.3136 32.2926 45.1063ZM25.3039 26.7951L25.3774 27.0029L23.42 27.3403V27.3016V27.2833L23.4195 27.2649C23.4139 27.0339 23.4885 26.8081 23.6306 26.6258C23.7722 26.4443 23.9721 26.3172 24.1965 26.2661C24.4208 26.217 24.6552 26.2467 24.8602 26.3501C25.0524 26.447 25.2079 26.6033 25.3039 26.7951Z" stroke="#A8A8A8" stroke-width="3"/>
<path id="Vector_3" d="M121.793 39.3696H46.202C45.3414 39.3696 44.516 39.0277 43.9075 38.4191C43.2989 37.8106 42.957 36.9852 42.957 36.1246C42.957 35.264 43.2989 34.4386 43.9075 33.8301C44.516 33.2215 45.3414 32.8796 46.202 32.8796H121.793C122.654 32.8796 123.479 33.2215 124.088 33.8301C124.697 34.4386 125.038 35.264 125.038 36.1246C125.038 36.9852 124.697 37.8106 124.088 38.4191C123.479 39.0277 122.654 39.3696 121.793 39.3696Z" fill="#DADCE0"/>
<path id="Vector_4" d="M140.114 171.748H96.5379C95.6773 171.748 94.8519 171.406 94.2434 170.797C93.6348 170.189 93.293 169.364 93.293 168.503C93.293 167.642 93.6348 166.817 94.2434 166.208C94.8519 165.6 95.6773 165.258 96.5379 165.258H140.114C140.974 165.258 141.8 165.6 142.408 166.208C143.017 166.817 143.359 167.642 143.359 168.503C143.359 169.364 143.017 170.189 142.408 170.797C141.8 171.406 140.974 171.748 140.114 171.748Z" fill="#DADCE0"/>
<path id="Vector_5" d="M82.8472 81.8786H27.3582C26.4976 81.8786 25.6723 81.5367 25.0637 80.9282C24.4552 80.3196 24.1133 79.4943 24.1133 78.6336V64.3315C24.1133 63.4708 24.4552 62.6455 25.0637 62.0369C25.6723 61.4284 26.4976 61.0865 27.3582 61.0865H82.8472C83.7078 61.0865 84.5332 61.4284 85.1417 62.0369C85.7503 62.6455 86.0921 63.4708 86.0921 64.3315V78.6336C86.0921 79.0598 86.0082 79.4817 85.8451 79.8754C85.682 80.2691 85.443 80.6269 85.1417 80.9282C84.8404 81.2295 84.4827 81.4685 84.089 81.6316C83.6953 81.7947 83.2733 81.8786 82.8472 81.8786ZM30.6032 75.3887H79.6022V67.5764H30.6032V75.3887Z" fill="#A8A8A8"/>
<path id="Vector_6" d="M140.638 81.8786H104.749C103.888 81.8786 103.063 81.5367 102.454 80.9282C101.846 80.3196 101.504 79.4943 101.504 78.6336V64.3315C101.504 63.4708 101.846 62.6455 102.454 62.0369C103.063 61.4284 103.888 61.0865 104.749 61.0865H140.638C141.499 61.0865 142.324 61.4284 142.933 62.0369C143.541 62.6455 143.883 63.4708 143.883 64.3315V78.6336C143.883 79.0598 143.799 79.4817 143.636 79.8754C143.473 80.2691 143.234 80.6269 142.933 80.9282C142.631 81.2295 142.274 81.4685 141.88 81.6316C141.486 81.7947 141.064 81.8786 140.638 81.8786ZM107.994 75.3887H137.393V67.5764H107.994V75.3887Z" fill="#A8A8A8"/>
<path id="Vector_7" d="M133.054 106.516H30.3504C29.4898 106.516 28.6644 106.174 28.0559 105.566C27.4473 104.957 27.1055 104.132 27.1055 103.271C27.1055 102.41 27.4473 101.585 28.0559 100.976C28.6644 100.368 29.4898 100.026 30.3504 100.026H133.054C133.914 100.026 134.74 100.368 135.348 100.976C135.957 101.585 136.299 102.41 136.299 103.271C136.299 104.132 135.957 104.957 135.348 105.566C134.74 106.174 133.914 106.516 133.054 106.516Z" fill="#DADCE0"/>
<path id="Vector_8" d="M132.569 140.101H29.8661C29.0054 140.101 28.1801 139.76 27.5715 139.151C26.963 138.542 26.6211 137.717 26.6211 136.856C26.6211 135.996 26.963 135.17 27.5715 134.562C28.1801 133.953 29.0054 133.611 29.8661 133.611H132.569C133.43 133.611 134.255 133.953 134.864 134.562C135.472 135.17 135.814 135.996 135.814 136.856C135.814 137.717 135.472 138.542 134.864 139.151C134.255 139.76 133.43 140.101 132.569 140.101Z" fill="#A8A8A8"/>
</g>
</svg>
