<svg width="160" height="120" viewBox="0 0 160 120" fill="none" xmlns="http://www.w3.org/2000/svg">
<path d="M98.9314 0.00262684C95.76 0.0254076 92.6114 0.179179 89.2857 1.06763C85.6628 2.0478 82.225 3.61184 79.1086 5.69782C74.7314 3.13498 70.4914 1.02776 66.4286 0.53228C61.3829 -0.0884967 56.6971 0.247521 51.2514 0.361425C44.7943 0.492415 40.5829 3.77854 33.7486 6.40972C26.92 9.02951 18.1257 11.5696 5.71429 11.5696H0V66.3858L3.21714 67.9862L13.7486 73.1517L51.2514 114.795L51.4286 114.972C55.7143 119.197 61.4971 120.245 66.6057 119.955C71.72 119.67 76.52 118.178 80.3543 115.866C88.7943 110.791 111.783 94.8618 111.783 94.8618L112.32 94.503L112.68 94.1499C115.4 91.4561 116.766 88.17 117.68 84.7187L139.64 73.6814L156.069 68.1684L160 66.9155V11.5696H154.286C144.68 11.635 135.155 9.81999 126.251 6.22748C119.417 3.56782 115.269 0.315863 108.743 0.179179C105.257 0.110836 102.097 -0.0201539 98.9314 0.00262684ZM99.1029 11.393C101.674 11.3702 104.646 11.5069 108.394 11.5696C108.994 11.5924 114.486 13.9274 122.143 16.9117C128.617 19.446 137.611 21.6956 148.571 22.4246V58.7315L135.354 63.1851H135L134.64 63.356L117.326 72.081C116.407 69.4381 114.947 67.014 113.04 64.962L112.68 64.4267L88.3943 34.7091L84.8229 30.2555L80.3543 33.815L65 46.2761C59.8457 49.8356 55.6686 48.8105 51.4286 46.8114C50.2 46.2305 50.2686 46.054 49.2857 45.3876L75.36 23.8484L75.7143 23.4953C83.4571 15.841 88.2171 13.1927 92.32 12.1049C94.3771 11.5468 96.5371 11.4158 99.1029 11.393ZM59.2914 11.5696C61.198 11.4979 63.1073 11.5569 65.0057 11.7461C66.5029 11.9227 68.2 13.1927 69.6514 13.7053C69.0686 14.2406 68.6457 14.5482 68.04 15.1291L67.6857 15.4879L36.4343 41.2871L31.6114 45.2054L35.8971 49.6533C35.8971 49.6533 40.0286 54.107 46.4343 57.1311C52.84 60.1553 62.7314 61.8695 71.6114 55.7073L71.9714 55.3485L83.04 46.2761L104.114 72.081L104.291 72.4398L104.469 72.6107C108.24 76.3296 108.154 82.1786 104.469 85.9659C104.423 86.0058 104.514 86.0969 104.469 86.1368C104.423 86.1652 103.669 86.6095 103.577 86.6778L96.0743 76.529L86.7886 83.2949L94.1143 93.0792C91.1429 95.0839 89.8057 96.1318 86.6114 98.2448L78.9371 87.9194L69.6457 94.6853L76.9714 104.47C76.32 104.868 74.9829 105.762 74.4686 106.076C72.6629 107.163 69.1771 108.388 66.0743 108.564C63.1543 108.724 60.92 108.052 59.8286 107.141L59.6514 106.964L21.4343 64.7855L20.72 63.8913L11.4286 59.2668V22.4246C22.3429 21.7127 31.4057 19.5542 37.8571 17.0882C45.4914 14.1723 50.9429 11.7689 51.6057 11.7461L59.2857 11.5696H59.2914Z" fill="#0072DB"/>
</svg>
