<svg width="102" height="131" viewBox="0 0 102 131" fill="none" xmlns="http://www.w3.org/2000/svg">
<path d="M0 116.444C0 120.305 1.5352 124.007 4.26787 126.737C7.00054 129.466 10.7068 131 14.5714 131H87.4286C91.2932 131 94.9995 129.466 97.7321 126.737C100.465 124.007 102 120.305 102 116.444V14.5556C102 10.6952 100.465 6.99292 97.7321 4.26322C94.9995 1.53353 91.2932 0 87.4286 0H14.5714C10.7068 0 7.00054 1.53353 4.26787 4.26322C1.5352 6.99292 0 10.6952 0 14.5556V116.444ZM87.4286 29.1111H51V21.8333H87.4286V29.1111ZM87.4286 43.6667H51V36.3889H87.4286V43.6667ZM87.4286 58.2222H51V50.9444H87.4286V58.2222ZM14.5714 94.6111H87.4286V101.889H14.5714V94.6111ZM14.5714 80.0556H87.4286V87.3333H14.5714V80.0556ZM14.5714 65.5H87.4286V72.7778H14.5714V65.5ZM14.5714 21.8333H43.7143V58.2222H14.5714V21.8333Z" fill="#D65108"/>
</svg>
