<svg width="57" height="57" viewBox="0 0 57 57" fill="none" xmlns="http://www.w3.org/2000/svg">
<path d="M56.9999 28.5C57.0063 29.3355 56.7524 30.1522 56.2735 30.8367C55.7945 31.5212 55.1142 32.0394 54.3272 32.3193L38.1791 38.1933L32.3094 54.3438C32.0201 55.1234 31.4992 55.7958 30.8167 56.2707C30.1341 56.7455 29.3227 57 28.4913 57C27.6599 57 26.8485 56.7455 26.166 56.2707C25.4834 55.7958 24.9625 55.1234 24.6732 54.3438L18.8009 38.1755L2.65543 32.3193C1.87602 32.0299 1.20381 31.5088 0.729125 30.8261C0.254435 30.1433 0 29.3316 0 28.5C0 27.6684 0.254435 26.8567 0.729125 26.1739C1.20381 25.4912 1.87602 24.9701 2.65543 24.6807L18.8188 18.8067L24.6732 2.65624C24.9625 1.87659 25.4834 1.20418 26.166 0.729347C26.8485 0.254513 27.6599 0 28.4913 0C29.3227 0 30.1341 0.254513 30.8167 0.729347C31.4992 1.20418 32.0201 1.87659 32.3094 2.65624L38.1817 18.8245L54.3272 24.6807C55.1142 24.9606 55.7945 25.4788 56.2735 26.1633C56.7524 26.8478 57.0063 27.6645 56.9999 28.5Z" fill="#D65108"/>
</svg>
